<?xml version="1.0" encoding="UTF-8" standalone="no"?><!DOCTYPE svg PUBLIC "-//W3C//DTD SVG 1.1//EN" "http://www.w3.org/Graphics/SVG/1.1/DTD/svg11.dtd"><svg width="100%" height="100%" viewBox="0 0 24 24" version="1.1" xmlns="http://www.w3.org/2000/svg" xmlns:xlink="http://www.w3.org/1999/xlink" xml:space="preserve" xmlns:serif="http://www.serif.com/" style="fill-rule:evenodd;clip-rule:evenodd;stroke-linecap:round;stroke-linejoin:round;"><g><path d="M6,11l4,0" style="fill:none;fill-rule:nonzero;stroke:#fff;stroke-width:4px;"/><path d="M8,9l0,4" style="fill:none;fill-rule:nonzero;stroke:#fff;stroke-width:4px;"/><path d="M15,12l0.01,0" style="fill:none;fill-rule:nonzero;stroke:#fff;stroke-width:4px;"/><path d="M18,10l0.01,0" style="fill:none;fill-rule:nonzero;stroke:#fff;stroke-width:4px;"/><path d="M17.32,5l-10.64,0c-2.04,0 -3.769,1.561 -3.978,3.59c-0.006,0.052 -0.01,0.101 -0.017,0.152c-0.081,0.674 -0.685,5.714 -0.685,7.258c0,1.646 1.354,3 3,3c1,0 1.5,-0.5 2,-1l1.414,-1.414c0.375,-0.375 0.884,-0.586 1.414,-0.586l4.344,0c0.53,0 1.039,0.211 1.414,0.586l1.414,1.414c0.5,0.5 1,1 2,1c1.646,0 3,-1.354 3,-3c0,-1.545 -0.604,-6.584 -0.685,-7.258c-0.007,-0.05 -0.011,-0.1 -0.017,-0.151c-0.209,-2.029 -1.938,-3.59 -3.978,-3.591Z" style="fill:#fff;fill-rule:nonzero;stroke:#fff;stroke-width:4px;"/></g><g><path d="M6,11l4,0" style="fill:none;fill-rule:nonzero;stroke:#000;stroke-width:2px;"/><path d="M8,9l0,4" style="fill:none;fill-rule:nonzero;stroke:#000;stroke-width:2px;"/><path d="M15,12l0.01,0" style="fill:none;fill-rule:nonzero;stroke:#000;stroke-width:2px;"/><path d="M18,10l0.01,0" style="fill:none;fill-rule:nonzero;stroke:#000;stroke-width:2px;"/><path d="M17.32,5l-10.64,0c-2.04,0 -3.769,1.561 -3.978,3.59c-0.006,0.052 -0.01,0.101 -0.017,0.152c-0.081,0.674 -0.685,5.714 -0.685,7.258c0,1.646 1.354,3 3,3c1,0 1.5,-0.5 2,-1l1.414,-1.414c0.375,-0.375 0.884,-0.586 1.414,-0.586l4.344,0c0.53,0 1.039,0.211 1.414,0.586l1.414,1.414c0.5,0.5 1,1 2,1c1.646,0 3,-1.354 3,-3c0,-1.545 -0.604,-6.584 -0.685,-7.258c-0.007,-0.05 -0.011,-0.1 -0.017,-0.151c-0.209,-2.029 -1.938,-3.59 -3.978,-3.591Z" style="fill:none;fill-rule:nonzero;stroke:#000;stroke-width:2px;"/></g></svg>