<?xml version="1.0" encoding="UTF-8" standalone="no"?>
<svg width="100%" height="100%" viewBox="0 0 956 178" version="1.1"
  xmlns="http://www.w3.org/2000/svg"
  xmlns:xlink="http://www.w3.org/1999/xlink" xml:space="preserve"
  xmlns:serif="http://www.serif.com/" style="fill-rule:evenodd;clip-rule:evenodd;stroke-linejoin:round;stroke-miterlimit:2;">
  <g fill="currentColor">
    <path d="M54.257,167.028l628.753,-0c1.788,0.22 3.61,0.333 5.458,0.333c-0,-0 213.192,-0 213.192,-0c24.472,-0 44.34,-19.868 44.34,-44.34l0,-68.764c0,-24.426 -19.831,-44.257 -44.257,-44.257l-847.486,0c-24.426,0 -44.257,19.831 -44.257,44.257l-0,68.514c-0,24.426 19.831,44.257 44.257,44.257Zm615.982,-27.885l-32.477,-0c-4.437,4.845 -10.812,7.885 -17.892,7.885l-565.574,-0c-13.387,-0 -24.257,-10.87 -24.257,-24.257c0,-0 0,-68.514 0,-68.514c0,-13.388 10.87,-24.257 24.257,-24.257l565.574,0c13.388,0 24.257,10.869 24.257,24.257l0,44.886l20,-0l0,-44.803c0,-13.434 10.907,-24.34 24.341,-24.34l213.192,-0l0.314,0.002c2.748,0.052 5.467,0.529 8.051,1.476c6.763,2.478 12.203,7.984 14.598,14.777c0.916,2.601 1.36,5.331 1.377,8.085l0,68.431c-0,13.387 -10.869,24.257 -24.257,24.257l-217.308,-0c-5.614,-0.938 -10.58,-3.8 -14.196,-7.885Z"/>
    <rect x="644.127" y="109.143" width="20" height="20"/>
    <g>
      <path d="M110.567,129.143l-0,-2.3c-6.274,3.206 -12.895,4.809 -19.866,4.809c-6.064,0 -11.692,-1.115 -16.885,-3.346c-5.193,-2.23 -9.706,-5.28 -13.54,-9.148c-3.834,-3.869 -6.831,-8.399 -8.992,-13.592c-2.16,-5.193 -3.241,-10.787 -3.241,-16.781c0,-5.855 1.098,-11.396 3.294,-16.624c2.195,-5.228 5.227,-9.811 9.096,-13.749c3.868,-3.938 8.399,-7.04 13.592,-9.305c5.193,-2.266 10.786,-3.398 16.781,-3.398c6.413,-0 12.494,1.376 18.245,4.13c5.75,2.753 10.751,6.639 15.003,11.657l-17.774,11.815c-2.161,-2.161 -4.548,-3.816 -7.162,-4.966c-2.614,-1.15 -5.385,-1.725 -8.312,-1.725c-3.067,-0 -5.907,0.609 -8.521,1.829c-2.614,1.22 -4.879,2.841 -6.796,4.862c-1.917,2.021 -3.416,4.374 -4.496,7.057c-1.08,2.684 -1.621,5.524 -1.621,8.522c0,2.997 0.541,5.855 1.621,8.573c1.08,2.718 2.596,5.088 4.548,7.11c1.952,2.021 4.234,3.642 6.848,4.861c2.614,1.22 5.455,1.83 8.521,1.83c3.277,0 6.396,-0.732 9.358,-2.195c2.962,-1.464 5.454,-3.52 7.476,-6.169l-14.324,-0l-0,-19.552l35.653,0l-0,45.795l-18.506,-0Z" style="fill-rule:nonzero;"/>
      <path d="M193.269,129.143l-4.182,-11.187l-24.989,-0l-4.182,11.187l-22.897,-0l30.007,-81.134l19.133,-0l30.007,81.134l-22.897,-0Zm-16.624,-51.545l-6.482,21.433l12.86,0l-6.378,-21.433Z" style="fill-rule:nonzero;"/>
      <path d="M285.486,129.143l-0,-41.717l-17.356,28.648c-0.209,0.418 -0.558,0.697 -1.046,0.836c-0.488,0.139 -0.906,0.209 -1.254,0.209c-0.419,0 -0.872,-0.07 -1.36,-0.209c-0.487,-0.139 -0.836,-0.418 -1.045,-0.836l-17.356,-28.648l-0,41.717l-21.225,-0l0,-81.134l19.866,-0c0.697,-0 1.289,0.314 1.777,0.941l19.238,32.098l19.343,-32.098c0.488,-0.627 1.045,-0.941 1.672,-0.941l19.97,-0l0,81.134l-21.224,-0Z" style="fill-rule:nonzero;"/>
      <path d="M320.511,129.143l0,-81.134l64.72,-0l-0,19.342l-43.6,0l0,11.606l41.09,-0l0,19.342l-41.09,0l0,11.606l43.6,-0l-0,19.238l-64.72,-0Z" style="fill-rule:nonzero;"/>
      <path d="M432.907,131.652c-5.994,0 -11.588,-1.132 -16.781,-3.398c-5.193,-2.265 -9.723,-5.367 -13.592,-9.305c-3.868,-3.938 -6.918,-8.504 -9.148,-13.697c-2.231,-5.193 -3.346,-10.717 -3.346,-16.572c0,-5.855 1.115,-11.379 3.346,-16.571c2.23,-5.193 5.28,-9.759 9.148,-13.697c3.869,-3.938 8.399,-7.04 13.592,-9.305c5.193,-2.266 10.787,-3.398 16.781,-3.398c5.437,-0 10.665,0.993 15.683,2.979c5.019,1.987 9.654,4.862 13.906,8.626l-16.729,14.638c-4.042,-2.858 -8.294,-4.287 -12.755,-4.287c-2.928,0 -5.646,0.558 -8.155,1.673c-2.51,1.115 -4.671,2.649 -6.483,4.6c-1.812,1.952 -3.241,4.2 -4.287,6.744c-1.045,2.544 -1.568,5.21 -1.568,7.998c0,2.858 0.523,5.559 1.568,8.103c1.046,2.545 2.475,4.775 4.287,6.692c1.812,1.917 3.956,3.45 6.43,4.6c2.475,1.15 5.176,1.725 8.103,1.725c3.346,0 6.465,-0.766 9.358,-2.3c2.893,-1.533 5.419,-3.694 7.58,-6.482l17.251,14.01c-4.321,5.298 -9.427,9.393 -15.317,12.285c-5.89,2.893 -12.18,4.339 -18.872,4.339Z" style="fill-rule:nonzero;"/>
      <path d="M526.065,129.143l-4.182,-11.187l-24.989,-0l-4.182,11.187l-22.897,-0l30.007,-81.134l19.133,-0l30.007,81.134l-22.897,-0Zm-16.624,-51.545l-6.482,21.433l12.86,0l-6.378,-21.433Z" style="fill-rule:nonzero;"/>
      <path d="M603.644,129.143l-46.004,-0l0,-81.134l42.449,-0c1.534,-0 3.12,0.192 4.758,0.575c1.638,0.383 3.241,0.941 4.809,1.673c1.568,0.732 3.032,1.586 4.391,2.561c1.36,0.976 2.527,2.057 3.503,3.242c1.743,2.091 3.084,4.426 4.025,7.005c0.941,2.579 1.412,5.227 1.412,7.946c-0,3.136 -0.628,6.151 -1.882,9.044c-1.255,2.892 -3.067,5.419 -5.437,7.58c1.533,0.976 2.945,2.161 4.234,3.555c1.29,1.394 2.388,2.927 3.294,4.6c0.906,1.673 1.62,3.433 2.143,5.28c0.523,1.847 0.784,3.642 0.784,5.385c0,3.067 -0.575,5.977 -1.725,8.73c-1.15,2.753 -2.753,5.158 -4.809,7.214c-2.056,2.056 -4.444,3.694 -7.162,4.914c-2.719,1.22 -5.646,1.83 -8.783,1.83Zm-10.142,-64.824l-14.533,0l0,16.52l14.533,-0c2.231,-0 4.165,-0.819 5.803,-2.457c1.638,-1.638 2.457,-3.572 2.457,-5.803c0,-2.23 -0.819,-4.165 -2.457,-5.803c-1.638,-1.638 -3.572,-2.457 -5.803,-2.457Zm0.732,31.262l-15.265,0l0,16.415l15.265,0c2.301,0 4.252,-0.802 5.855,-2.405c1.604,-1.603 2.405,-3.555 2.405,-5.855c0,-2.23 -0.801,-4.147 -2.405,-5.75c-1.603,-1.603 -3.554,-2.405 -5.855,-2.405Z" style="fill-rule:nonzero;"/>
    </g>
    <g>
      <path d="M731.888,129.143l-28.125,-43.286l-0,43.286l-21.643,-0l0,-81.03l21.538,0l28.23,43.704l0,-43.704l21.747,0l0,81.03l-21.747,-0Z" style="fill-rule:nonzero;"/>
      <path d="M765.241,129.247l-0,-81.134l64.719,0l-0,19.343l-43.599,-0l-0,11.605l41.09,0l-0,19.343l-41.09,-0l-0,11.605l43.599,0l-0,19.238l-64.719,0Z" style="fill-rule:nonzero;"/>
      <path d="M906.494,68.188l-22.271,-0l0,61.059l-22.06,0l-0,-61.059l-22.27,-0l-1.464,-1.464l-0,-18.611l69.528,0l0,18.611l-1.463,1.464Z" style="fill-rule:nonzero;"/>
    </g>
  </g>
</svg>